<?xml version="1.0" encoding="iso-8859-1"?>
<!-- Generator: Adobe Illustrator 15.1.0, SVG Export Plug-In . SVG Version: 6.00 Build 0)  -->
<!DOCTYPE svg PUBLIC "-//W3C//DTD SVG 1.1//EN" "http://www.w3.org/Graphics/SVG/1.1/DTD/svg11.dtd">
<svg version="1.1" id="Ebene_1" xmlns="http://www.w3.org/2000/svg" xmlns:xlink="http://www.w3.org/1999/xlink" x="0px" y="0px"
	 width="67.382px" height="59.895px" viewBox="0 0 67.382 59.895" style="enable-background:new 0 0 67.382 59.895;"
	 xml:space="preserve">
<g>
	<rect x="8.504" y="0.858" style="fill:none;" width="57.681" height="57.895"/>
	<g>
		<path style="fill:#0093D1;" d="M4.799,57.554H4.291c-0.063-0.202-0.074-0.585-0.074-0.675c0-0.188-0.031-0.378-0.379-0.378H3.093
			l0.001,1.053H2.646v-2.572h1.192c0.412,0,0.865,0.147,0.865,0.719c0,0.322-0.138,0.479-0.277,0.579
			c0.116,0.065,0.217,0.177,0.229,0.468l0.021,0.443c0.006,0.129,0.018,0.154,0.123,0.215V57.554z M4.244,55.735
			c0-0.324-0.222-0.352-0.382-0.352h-0.77v0.716L3.805,56.1C4.041,56.1,4.244,56.044,4.244,55.735z M6.356,56.297
			c0-1.522-1.233-2.741-2.755-2.741s-2.757,1.219-2.757,2.741c0,1.521,1.235,2.739,2.757,2.739S6.356,57.819,6.356,56.297z
			 M5.941,56.297c0,1.292-0.994,2.339-2.34,2.339s-2.341-1.047-2.341-2.339c0-1.293,0.989-2.341,2.341-2.341
			C4.952,53.957,5.941,55.004,5.941,56.297z"/>
		<g>
			
				<radialGradient id="SVGID_1_" cx="-805.6216" cy="-14273.666" r="1283.9927" gradientTransform="matrix(0.0519 0 0 0.0519 63.7719 749.7585)" gradientUnits="userSpaceOnUse">
				<stop  offset="0.0056" style="stop-color:#42B9E3"/>
				<stop  offset="0.1517" style="stop-color:#3FB2DB"/>
				<stop  offset="0.2697" style="stop-color:#17AED9"/>
				<stop  offset="0.4157" style="stop-color:#1299BF"/>
				<stop  offset="0.8371" style="stop-color:#005A7E"/>
			</radialGradient>
			<path style="fill:url(#SVGID_1_);" d="M66.537,38.375c0,1.444-0.907,2.14-2.548,2.14l-3.132-0.001v-1.456h3.12
				c0.303,0,0.518-0.043,0.651-0.166c0.108-0.101,0.191-0.251,0.191-0.444c0-0.201-0.084-0.354-0.197-0.449
				c-0.122-0.102-0.287-0.145-0.565-0.151c-1.515-0.043-3.419,0.05-3.419-2.106c0-0.974,0.617-2.019,2.323-2.019h3.231v1.457h-2.957
				c-0.294-0.001-0.489,0.01-0.649,0.115c-0.169,0.111-0.237,0.272-0.237,0.49c0,0.253,0.146,0.429,0.354,0.503
				c0.167,0.059,0.351,0.072,0.622,0.079l0.869,0.02c0.902,0.021,1.489,0.17,1.854,0.55C66.373,37.269,66.537,37.668,66.537,38.375z
				 M59.711,36.935c-0.365-0.379-0.955-0.529-1.854-0.55l-0.869-0.02c-0.271-0.007-0.456-0.021-0.622-0.079
				c-0.208-0.074-0.354-0.25-0.354-0.503c0-0.218,0.068-0.379,0.237-0.49c0.16-0.105,0.355-0.116,0.648-0.115h2.976v-1.457h-3.249
				c-1.705,0-2.324,1.045-2.324,2.019c0,2.156,1.904,2.063,3.42,2.106c0.276,0.007,0.442,0.05,0.564,0.151
				c0.114,0.096,0.198,0.248,0.198,0.449c0,0.193-0.083,0.344-0.192,0.444c-0.134,0.124-0.349,0.166-0.651,0.166h-3.147v1.456
				l3.16,0.001c1.641,0,2.548-0.695,2.548-2.14C60.2,37.668,60.034,37.269,59.711,36.935z M53.528,39.1l-3.795-0.002v-1.343
				l3.705,0.001V36.36l-3.705,0.001v-1.225h3.795v-1.415h-5.416v6.792h5.416V39.1z M46.379,34.052
				c-0.524-0.302-1.13-0.331-1.951-0.331h-3.738v6.792h1.621l0.001-2.471l1.742-0.001c0.588,0,0.944,0.052,1.178,0.298
				c0.3,0.32,0.264,0.911,0.264,1.315v0.858h1.633l-0.001-1.348c0-0.59-0.04-0.901-0.268-1.231
				c-0.136-0.198-0.441-0.441-0.796-0.577c0.426-0.167,1.151-0.724,1.151-1.801C47.215,34.796,46.9,34.351,46.379,34.052z
				 M37.2,33.721h-5.183l-2.068,2.228l-1.988-2.228h-6.528v6.792h6.428l2.071-2.24l1.996,2.24h3.157v-2.272H37.1
				c1.417,0,2.822-0.396,2.822-2.274S38.479,33.721,37.2,33.721z M45.082,36.509c-0.219,0.128-0.48,0.138-0.796,0.138l-1.975,0.001
				v-1.512h1.999c0.287,0,0.58,0.01,0.771,0.116c0.204,0.112,0.332,0.323,0.332,0.61C45.414,36.154,45.288,36.389,45.082,36.509z
				 M37.183,36.847h-2.098v-1.711H37.2c0.583,0,0.981,0.241,0.981,0.83C38.182,36.549,37.8,36.847,37.183,36.847z M30.979,37.131
				l2.483-2.673v5.433L30.979,37.131z M27.037,39.098h-3.983v-1.343l3.551,0.001V36.36l-3.551,0.001v-1.225h4.057l1.778,1.975
				L27.037,39.098z"/>
			
				<radialGradient id="SVGID_2_" cx="-805.6743" cy="-14273.627" r="1284.0574" gradientTransform="matrix(0.0519 0 0 0.0519 63.7719 749.7585)" gradientUnits="userSpaceOnUse">
				<stop  offset="0.0056" style="stop-color:#42B9E3"/>
				<stop  offset="0.1517" style="stop-color:#3FB2DB"/>
				<stop  offset="0.2697" style="stop-color:#17AED9"/>
				<stop  offset="0.4157" style="stop-color:#1299BF"/>
				<stop  offset="0.8371" style="stop-color:#005A7E"/>
			</radialGradient>
			<path style="fill:url(#SVGID_2_);" d="M62.061,28.842h-2.308l-3.07-5.089l0.003,5.089h-3.302l-0.624-1.52h-3.373l-0.623,1.52
				h-1.887c-0.796,0-1.795-0.183-2.356-0.756c-0.57-0.578-0.86-1.355-0.86-2.59c0-1.007,0.18-1.929,0.871-2.648
				c0.52-0.542,1.35-0.798,2.467-0.798h1.551v1.457l-1.517-0.001c-0.601,0-0.938,0.088-1.255,0.404
				c-0.285,0.284-0.475,0.826-0.475,1.538c0,0.724,0.143,1.242,0.46,1.592c0.24,0.266,0.69,0.346,1.127,0.346l0.729,0.001
				L49.9,22.05h2.415l2.747,6.423V22.05h2.477l2.854,4.729l-0.002-4.729h1.669V28.842z M42.871,22.05H41.21v6.792h1.661V22.05z
				 M39.44,22.381c-0.524-0.302-1.131-0.331-1.951-0.331h-3.737v6.792h1.621V26.37h1.742c0.589,0,0.944,0.052,1.177,0.298
				c0.301,0.32,0.265,0.912,0.265,1.316v0.858h1.633l-0.001-1.348c0-0.589-0.04-0.902-0.267-1.231
				c-0.138-0.198-0.443-0.44-0.799-0.575c0.426-0.168,1.154-0.726,1.154-1.803C40.277,23.125,39.961,22.68,39.44,22.381z
				 M32.63,27.426l-3.794,0.003v-1.347l3.703,0.003v-1.396h-3.703v-1.223h3.794V22.05h-5.416v6.792h5.416V27.426z M26.004,22.05
				h-2.699l-1.952,4.605l-2.113-4.605h-2.655l0.002,6.425l-2.749-6.425h-2.415l-2.903,6.792h1.767l0.623-1.52h3.375l0.623,1.52h3.3
				v-5.325l2.357,5.325h1.424l2.354-5.316v5.316h1.662V22.05z M52.18,25.91l-1.107-2.699l-1.104,2.699H52.18z M38.145,24.838
				c-0.22,0.129-0.482,0.138-0.796,0.138h-1.976v-1.51h1.999c0.286,0,0.58,0.009,0.771,0.115c0.204,0.113,0.331,0.322,0.331,0.61
				C38.475,24.483,38.351,24.717,38.145,24.838z M11.488,25.91l1.104-2.699l1.108,2.699H11.488z"/>
			
				<radialGradient id="SVGID_3_" cx="-805.6123" cy="-14273.627" r="1284.0022" gradientTransform="matrix(0.0519 0 0 0.0519 63.7719 749.7585)" gradientUnits="userSpaceOnUse">
				<stop  offset="0.0056" style="stop-color:#42B9E3"/>
				<stop  offset="0.1517" style="stop-color:#3FB2DB"/>
				<stop  offset="0.2697" style="stop-color:#17AED9"/>
				<stop  offset="0.4157" style="stop-color:#1299BF"/>
				<stop  offset="0.8371" style="stop-color:#00547A"/>
			</radialGradient>
			<path style="fill:url(#SVGID_3_);" d="M66.185,32.385H63.18c-0.897,0-1.571,0.209-2.035,0.545v-0.545h-4.431
				c-0.7,0-1.547,0.173-1.943,0.545v-0.545h-7.917v0.545c-0.635-0.444-1.694-0.545-2.192-0.545h-5.229l0.001,0.545
				c-0.501-0.48-1.599-0.545-2.27-0.545h-5.861l-1.341,1.452l-1.247-1.452h-8.741v9.463h8.578l1.375-1.472l1.302,1.469l5.28,0.004
				v-2.23l0.524,0.001c0.699,0.002,1.526-0.019,2.246-0.328v2.557h4.372l0.001-2.476l0.214-0.001
				c0.267-0.001,0.286,0.022,0.286,0.274v2.202h13.241c0.832,0,1.729-0.213,2.212-0.599v0.599h4.199c0.871,0,1.73-0.123,2.381-0.432
				v17.336H8.504V30.178h2.767l0.627-1.517h1.396l0.626,1.517h5.45v-1.154l0.488,1.157h2.822l0.49-1.174v1.171h13.538L36.707,27.7
				l0.265,0.002c0.192,0.001,0.241,0.023,0.241,0.323v2.153h7.004l-0.003-0.588c0.557,0.303,1.435,0.588,2.601,0.588h2.947
				l0.635-1.517h1.395l0.627,1.517h5.663v-1.436l0.869,1.436h4.548v-9.463H59v1.116l-0.646-1.116h-4.618v1.116l-0.569-1.116h-6.24
				c-1.052,0-1.978,0.139-2.712,0.545v-0.545h-4.303v0.545c-0.489-0.413-1.125-0.545-1.837-0.545H22.337l-1.063,2.44l-1.078-2.44
				h-4.951v1.116l-0.558-1.116h-4.229l-1.953,4.489V0.858h57.681V32.385z"/>
		</g>
	</g>
</g>
</svg>
