<?xml version="1.0" encoding="UTF-8" standalone="no"?>
<!-- Generator: Adobe Illustrator 15.0.2, SVG Export Plug-In . SVG Version: 6.00 Build 0)  -->

<svg
   xmlns:dc="http://purl.org/dc/elements/1.1/"
   xmlns:cc="http://creativecommons.org/ns#"
   xmlns:rdf="http://www.w3.org/1999/02/22-rdf-syntax-ns#"
   xmlns:svg="http://www.w3.org/2000/svg"
   xmlns="http://www.w3.org/2000/svg"
   xmlns:sodipodi="http://sodipodi.sourceforge.net/DTD/sodipodi-0.dtd"
   xmlns:inkscape="http://www.inkscape.org/namespaces/inkscape"
   version="1.1"
   id="Ebene_1"
   x="0px"
   y="0px"
   width="384.28558"
   height="79.51445"
   viewBox="0 0 384.28557 79.51445"
   xml:space="preserve"
   inkscape:version="0.91 r13725"
   sodipodi:docname="logo2.svg"><metadata
     id="metadata97"><rdf:RDF><cc:Work
         rdf:about=""><dc:format>image/svg+xml</dc:format><dc:type
           rdf:resource="http://purl.org/dc/dcmitype/StillImage" /><dc:title></dc:title></cc:Work></rdf:RDF></metadata><defs
     id="defs95" /><sodipodi:namedview
     pagecolor="#ffffff"
     bordercolor="#666666"
     borderopacity="1"
     objecttolerance="10"
     gridtolerance="10"
     guidetolerance="10"
     inkscape:pageopacity="0"
     inkscape:pageshadow="2"
     inkscape:window-width="1680"
     inkscape:window-height="987"
     id="namedview93"
     showgrid="false"
     fit-margin-top="0"
     fit-margin-left="0"
     fit-margin-right="0"
     fit-margin-bottom="0"
     inkscape:zoom="0.80887449"
     inkscape:cx="185.95001"
     inkscape:cy="46.514448"
     inkscape:window-x="-8"
     inkscape:window-y="-8"
     inkscape:window-maximized="1"
     inkscape:current-layer="Ebene_1" /><style
     type="text/css"
     id="style3"><![CDATA[
	.st0{fill:#E6342A;}
	.st1{fill:#E6382E;}
	.st2{fill:#010202;}
]]></style><g
     id="g5"
     transform="translate(-30.4,-41.5)"><g
       id="g7"><g
         id="g9"><path
           class="st2"
           d="m 65.5,109.9 c 0,-3.6 2.4,-6.5 6,-6.5 3.7,0 6.1,2.9 6.1,6.5 0,3.6 -2.3,6.5 -6.1,6.5 -3.7,0 -6,-2.9 -6,-6.5 z m 10.6,0 c 0,-2.7 -1.6,-5.3 -4.6,-5.3 -2.9,0 -4.6,2.5 -4.6,5.3 0,2.8 1.7,5.3 4.6,5.3 2.9,0 4.6,-2.5 4.6,-5.3 z"
           id="path11"
           inkscape:connector-curvature="0"
           style="fill:#010202" /><path
           class="st2"
           d="m 88.5,116.3 0,-8.6 c 0,-2.4 -1.2,-3.1 -3,-3.1 -1.6,0 -3.3,1 -4.1,2.1 l 0,9.6 -1.4,0 0,-12.9 1.3,0 0,2.2 c 0.9,-1.1 2.7,-2.2 4.5,-2.2 2.5,0 3.9,1.2 3.9,4 l 0,8.9 -1.2,0 z"
           id="path13"
           inkscape:connector-curvature="0"
           style="fill:#010202" /><path
           class="st2"
           d="m 93.5,116.3 0,-17.3 1.3,0 0,17.3 -1.3,0 z"
           id="path15"
           inkscape:connector-curvature="0"
           style="fill:#010202" /><path
           class="st2"
           d="m 98.7,100.8 c 0,-0.6 0.5,-1 1,-1 0.6,0 1,0.4 1,1 0,0.6 -0.5,1 -1,1 -0.5,0 -1,-0.5 -1,-1 z m 0.4,15.5 0,-12.9 1.3,0 0,12.9 -1.3,0 z"
           id="path17"
           inkscape:connector-curvature="0"
           style="fill:#010202" /><path
           class="st2"
           d="m 113.1,116.3 0,-8.6 c 0,-2.4 -1.2,-3.1 -3,-3.1 -1.6,0 -3.3,1 -4.1,2.1 l 0,9.6 -1.4,0 0,-12.9 1.4,0 0,2.2 c 0.9,-1.1 2.7,-2.2 4.5,-2.2 2.5,0 3.9,1.2 3.9,4 l 0,8.9 -1.3,0 z"
           id="path19"
           inkscape:connector-curvature="0"
           style="fill:#010202" /><path
           class="st2"
           d="m 117.4,109.9 c 0,-3.6 2.6,-6.5 6,-6.5 3.8,0 5.9,3 5.9,6.5 l 0,0.4 -10.5,0 c 0.1,2.7 1.9,4.9 4.9,4.9 1.6,0 3,-0.6 4.1,-1.7 l 0.7,0.9 c -1.2,1.3 -2.8,2 -4.9,2 -3.6,0 -6.2,-2.7 -6.2,-6.5 z m 6,-5.3 c -3,0 -4.4,2.6 -4.5,4.7 l 9.1,0 c 0,-2.1 -1.4,-4.7 -4.6,-4.7 z"
           id="path21"
           inkscape:connector-curvature="0"
           style="fill:#010202" /><path
           class="st2"
           d="m 152.9,116.3 0,-2.2 c -0.9,1.3 -2.5,2.3 -4.4,2.3 -3.3,0 -5.6,-2.5 -5.6,-6.5 0,-3.9 2.3,-6.5 5.6,-6.5 1.8,0 3.3,0.9 4.4,2.3 l 0,-6.7 1.4,0 0,17.3 -1.4,0 z m 0,-3.3 0,-6.1 c -0.7,-1.2 -2.4,-2.3 -4.1,-2.3 -2.8,0 -4.4,2.3 -4.4,5.3 0,3 1.6,5.3 4.4,5.3 1.7,0 3.3,-1 4.1,-2.2 z"
           id="path23"
           inkscape:connector-curvature="0"
           style="fill:#010202" /><path
           class="st2"
           d="m 157.2,109.9 c 0,-3.6 2.6,-6.5 6,-6.5 3.8,0 5.9,3 5.9,6.5 l 0,0.4 -10.5,0 c 0.1,2.7 1.9,4.9 4.9,4.9 1.6,0 3,-0.6 4.1,-1.7 l 0.7,0.9 c -1.2,1.3 -2.8,2 -4.9,2 -3.6,0 -6.2,-2.7 -6.2,-6.5 z m 6,-5.3 c -3,0 -4.4,2.6 -4.5,4.7 l 9.1,0 c 0,-2.1 -1.4,-4.7 -4.6,-4.7 z"
           id="path25"
           inkscape:connector-curvature="0"
           style="fill:#010202" /><path
           class="st2"
           d="m 171.6,114.4 0.8,-1 c 0.8,1 2.3,1.8 4.1,1.8 2.1,0 3.3,-1.1 3.3,-2.5 0,-3.4 -7.9,-1.5 -7.9,-5.9 0,-1.9 1.6,-3.4 4.5,-3.4 2.2,0 3.6,0.8 4.5,1.8 l -0.8,0.9 c -0.7,-1 -2.1,-1.6 -3.7,-1.6 -1.9,0 -3.1,1 -3.1,2.3 0,3.1 7.9,1.2 7.9,6 0,2 -1.6,3.6 -4.7,3.6 -2.1,0 -3.7,-0.6 -4.9,-2 z"
           id="path27"
           inkscape:connector-curvature="0"
           style="fill:#010202" /><path
           class="st2"
           d="m 183.7,100.8 c 0,-0.6 0.5,-1 1,-1 0.6,0 1,0.4 1,1 0,0.6 -0.5,1 -1,1 -0.5,0 -1,-0.5 -1,-1 z m 0.4,15.5 0,-12.9 1.3,0 0,12.9 -1.3,0 z"
           id="path29"
           inkscape:connector-curvature="0"
           style="fill:#010202" /><path
           class="st2"
           d="m 189.2,119.2 0.8,-1 c 1.1,1.3 2.3,1.7 4.2,1.7 2.3,0 4.3,-1.1 4.3,-4 l 0,-1.9 c -0.9,1.3 -2.5,2.3 -4.4,2.3 -3.3,0 -5.6,-2.5 -5.6,-6.5 0,-3.9 2.3,-6.5 5.6,-6.5 1.8,0 3.3,0.9 4.4,2.3 l 0,-2.3 1.4,0 0,12.6 c 0,3.8 -2.6,5.1 -5.7,5.1 -2.2,0.1 -3.6,-0.3 -5,-1.8 z m 9.2,-6.3 0,-6 c -0.7,-1.2 -2.4,-2.3 -4.1,-2.3 -2.8,0 -4.4,2.3 -4.4,5.3 0,3 1.6,5.2 4.4,5.2 1.7,0 3.3,-1 4.1,-2.2 z"
           id="path31"
           inkscape:connector-curvature="0"
           style="fill:#010202" /><path
           class="st2"
           d="m 211.9,116.3 0,-8.6 c 0,-2.4 -1.2,-3.1 -3,-3.1 -1.6,0 -3.3,1 -4.1,2.1 l 0,9.6 -1.3,0 0,-12.9 1.3,0 0,2.2 c 0.9,-1.1 2.7,-2.2 4.5,-2.2 2.5,0 3.9,1.2 3.9,4 l 0,8.9 -1.3,0 z"
           id="path33"
           inkscape:connector-curvature="0"
           style="fill:#010202" /><path
           class="st2"
           d="m 216.2,109.9 c 0,-3.6 2.6,-6.5 6,-6.5 3.8,0 5.9,3 5.9,6.5 l 0,0.4 -10.5,0 c 0.1,2.7 1.9,4.9 4.9,4.9 1.6,0 3,-0.6 4.1,-1.7 l 0.7,0.9 c -1.2,1.3 -2.8,2 -4.9,2 -3.6,0 -6.2,-2.7 -6.2,-6.5 z m 6,-5.3 c -3,0 -4.4,2.6 -4.5,4.7 l 9.1,0 c 0,-2.1 -1.4,-4.7 -4.6,-4.7 z"
           id="path35"
           inkscape:connector-curvature="0"
           style="fill:#010202" /><path
           class="st2"
           d="m 231.2,116.4 0,-13 1.3,0 0,2.4 c 1.1,-1.4 2.5,-2.4 4.2,-2.4 l 0,1.5 c -0.2,-0.1 -0.4,-0.1 -0.7,-0.1 -1.3,0 -3,1.1 -3.6,2.2 l 0,9.3 -1.2,0 z"
           id="path37"
           inkscape:connector-curvature="0"
           style="fill:#010202" /><path
           class="st2"
           d="m 248.4,109.9 c 0,-3.6 2.4,-6.5 6,-6.5 3.7,0 6,2.9 6,6.5 0,3.6 -2.3,6.5 -6,6.5 -3.6,0 -6,-2.9 -6,-6.5 z m 10.6,0 c 0,-2.7 -1.6,-5.3 -4.6,-5.3 -2.9,0 -4.6,2.5 -4.6,5.3 0,2.8 1.7,5.3 4.6,5.3 3,0 4.6,-2.5 4.6,-5.3 z"
           id="path39"
           inkscape:connector-curvature="0"
           style="fill:#010202" /><path
           class="st2"
           d="m 271.4,116.3 0,-2.1 c -1,1.1 -2.7,2.1 -4.5,2.1 -2.6,0 -3.9,-1.2 -3.9,-4 l 0,-9 1.3,0 0,8.7 c 0,2.4 1.2,3.1 3,3.1 1.6,0 3.2,-0.9 4.1,-2 l 0,-9.7 1.4,0 0,13 -1.4,0 z"
           id="path41"
           inkscape:connector-curvature="0"
           style="fill:#010202" /><path
           class="st2"
           d="m 277.2,113.7 0,-9.1 -2.1,0 0,-1.2 2.1,0 0,-4.4 1.4,0 0,4.4 2.5,0 0,1.2 -2.5,0 0,8.9 c 0,1 0.4,1.7 1.3,1.7 0.6,0 1.1,-0.3 1.4,-0.6 l 0.5,1 c -0.5,0.5 -1.1,0.8 -2.1,0.8 -1.7,0 -2.5,-1 -2.5,-2.7 z"
           id="path43"
           inkscape:connector-curvature="0"
           style="fill:#010202" /><path
           class="st2"
           d="m 284.1,116.4 0,-17.3 1.3,0 0,17.3 -1.3,0 z"
           id="path45"
           inkscape:connector-curvature="0"
           style="fill:#010202" /><path
           class="st2"
           d="m 288.4,109.9 c 0,-3.6 2.6,-6.5 6.1,-6.5 3.8,0 5.9,3 5.9,6.5 l 0,0.4 -10.5,0 c 0.1,2.7 1.9,4.9 4.9,4.9 1.6,0 3,-0.6 4.1,-1.7 l 0.7,0.9 c -1.2,1.3 -2.8,2 -4.9,2 -3.6,0 -6.3,-2.7 -6.3,-6.5 z m 6.1,-5.3 c -3,0 -4.4,2.6 -4.5,4.7 l 9.1,0 c -0.1,-2.1 -1.5,-4.7 -4.6,-4.7 z"
           id="path47"
           inkscape:connector-curvature="0"
           style="fill:#010202" /><path
           class="st2"
           d="m 303.6,113.7 0,-9.1 -2.1,0 0,-1.2 2.1,0 0,-4.4 1.4,0 0,4.4 2.5,0 0,1.2 -2.5,0 0,8.9 c 0,1 0.4,1.7 1.3,1.7 0.6,0 1.1,-0.3 1.4,-0.6 l 0.5,1 c -0.5,0.5 -1.1,0.8 -2.1,0.8 -1.6,0 -2.5,-1 -2.5,-2.7 z"
           id="path49"
           inkscape:connector-curvature="0"
           style="fill:#010202" /></g></g><g
       id="g51"><path
         class="st2"
         d="m 53.3,87.4 0,-4.8 c -2.3,3 -5.7,4.8 -9.6,4.8 -7.7,0 -13.3,-5.8 -13.3,-15.6 0,-9.6 5.6,-15.7 13.3,-15.7 3.7,0 7.2,1.7 9.6,4.9 l 0,-15.6 6.5,0 0,42 -6.5,0 z m 0,-9.7 0,-11.9 c -1.5,-2.2 -4.6,-4 -7.7,-4 -5.1,0 -8.9,4.1 -8.9,9.9 0,5.7 3.8,9.9 8.9,9.9 3.1,0.1 6.2,-1.7 7.7,-3.9 z"
         id="path53"
         inkscape:connector-curvature="0"
         style="fill:#010202" /><path
         class="st2"
         d="m 65.5,87.4 0,-31.3 6.5,0 0,5.1 c 2.2,-2.8 5.8,-5.1 9.7,-5.1 l 0,6.4 c -0.6,-0.1 -1.2,-0.2 -2,-0.2 -2.7,0 -6.4,1.9 -7.7,4 l 0,21.1 -6.5,0 z"
         id="path55"
         inkscape:connector-curvature="0"
         style="fill:#010202" /><path
         class="st2"
         d="m 81,71.7 c 0,-8.7 6.3,-15.6 15.1,-15.6 9,0 14.7,6.9 14.7,16.3 l 0,1.5 -23,0 c 0.5,4.5 3.9,8.2 9.5,8.2 2.9,0 6.4,-1.2 8.5,-3.3 l 3,4.3 c -3,2.8 -7.4,4.3 -12.1,4.3 C 87.6,87.4 81,81.2 81,71.7 Z M 96.1,61.4 c -5.6,0 -8.1,4.3 -8.4,7.9 l 16.8,0 c -0.1,-3.5 -2.5,-7.9 -8.4,-7.9 z"
         id="path57"
         inkscape:connector-curvature="0"
         style="fill:#010202" /><path
         class="st2"
         d="m 111.9,82.8 3,-4.7 c 2.1,2.2 6.2,4.2 10.1,4.2 3.9,0 5.9,-1.7 5.9,-4 0,-5.9 -18,-1.7 -18,-13.1 0,-4.9 4.2,-9.1 11.7,-9.1 5.1,0 8.9,1.8 11.6,4.2 l -2.7,4.6 c -1.8,-2 -5.1,-3.6 -8.8,-3.6 -3.4,0 -5.6,1.5 -5.6,3.6 0,5.3 18,1.4 18,13.2 0,5.3 -4.4,9.3 -12.4,9.3 -5,0 -9.7,-1.6 -12.8,-4.6 z"
         id="path59"
         inkscape:connector-curvature="0"
         style="fill:#010202" /><path
         class="st2"
         d="m 138.4,82.8 3,-4.7 c 2.1,2.2 6.2,4.2 10.1,4.2 3.9,0 5.9,-1.7 5.9,-4 0,-5.9 -18,-1.7 -18,-13.1 0,-4.9 4.2,-9.1 11.7,-9.1 5.1,0 8.9,1.8 11.6,4.2 l -2.7,4.6 c -1.8,-2 -5.1,-3.6 -8.8,-3.6 -3.4,0 -5.6,1.5 -5.6,3.6 0,5.3 18,1.4 18,13.2 0,5.3 -4.4,9.3 -12.4,9.3 -5.1,0 -9.7,-1.6 -12.8,-4.6 z"
         id="path61"
         inkscape:connector-curvature="0"
         style="fill:#010202" /><path
         class="st1"
         d="m 183.6,87.4 0,-27.2 -4.9,0 0,-4.1 4.9,0 0,-1 c 0,-6.1 3.3,-9.7 8.7,-9.7 2.3,0 4.5,0.6 6.3,2.3 l -1.9,3 c -1,-0.9 -2.2,-1.5 -3.7,-1.5 -3,0 -4.7,2.1 -4.7,5.9 l 0,1 6.1,0 0,4.1 -6.1,0 0,27.2 -4.7,0 z"
         id="path63"
         inkscape:connector-curvature="0"
         style="fill:#e6382e" /><path
         class="st0"
         d="m 193.1,71.7 c 0,-8.7 5.7,-15.6 14.8,-15.6 9.1,0 14.8,7 14.8,15.6 0,8.7 -5.7,15.7 -14.8,15.7 -9.1,0 -14.8,-7 -14.8,-15.7 z m 24.6,0 c 0,-6.1 -3.5,-11.5 -9.9,-11.5 -6.4,0 -10,5.4 -10,11.5 0,6.1 3.6,11.6 10,11.6 6.4,0 9.9,-5.5 9.9,-11.6 z"
         id="path65"
         inkscape:connector-curvature="0"
         style="fill:#e6342a" /><path
         class="st1"
         d="m 227,87.4 0,-31.3 4.6,0 0,5 c 2.4,-3.2 5.9,-5 10,-5 l 0,4.8 c -0.6,-0.1 -1.1,-0.2 -1.9,-0.2 -2.8,0 -6.7,2.3 -8.1,4.8 l 0,22 -4.6,0 z"
         id="path67"
         inkscape:connector-curvature="0"
         style="fill:#e6382e" /><path
         class="st1"
         d="m 237.8,73.3 0,-3.4 11.4,0 0,3.4 -11.4,0 z"
         id="path69"
         inkscape:connector-curvature="0"
         style="fill:#e6382e" /><path
         class="st1"
         d="m 167,73.3 0,-3.4 11.4,0 0,3.4 -11.4,0 z"
         id="path71"
         inkscape:connector-curvature="0"
         style="fill:#e6382e" /><path
         class="st1"
         d="m 259.7,87.4 -4.7,0 0,-42 4.6,0 0,42 z"
         id="path73"
         inkscape:connector-curvature="0"
         style="fill:#e6382e" /><path
         class="st1"
         d="m 263.7,71.7 c 0,-8.7 6.2,-15.6 14.7,-15.6 9,0 14.3,7 14.3,16 l 0,1.2 -24.2,0 c 0.4,5.6 4.3,10.3 10.8,10.3 3.4,0 6.9,-1.4 9.2,-3.8 l 2.2,3 c -3,3 -7,4.6 -11.9,4.6 -8.8,0 -15.1,-6.4 -15.1,-15.7 z m 14.6,-11.8 c -6.4,0 -9.5,5.4 -9.8,9.9 l 19.6,0 c 0,-4.4 -3,-9.9 -9.8,-9.9 z"
         id="path75"
         inkscape:connector-curvature="0"
         style="fill:#e6382e" /><path
         class="st1"
         d="m 294,82.7 2.4,-3.3 c 2,2.3 5.7,4.3 9.8,4.3 4.6,0 7,-2.2 7,-5.1 0,-7.2 -18.5,-2.8 -18.5,-13.8 0,-4.6 4,-8.6 11.1,-8.6 5.1,0 8.7,1.9 11.1,4.3 l -2.2,3.2 c -1.8,-2.2 -5.1,-3.8 -8.9,-3.8 -4.1,0 -6.6,2 -6.6,4.7 0,6.6 18.5,2.2 18.5,13.8 0,5 -4,9 -11.7,9 -4.8,0 -8.9,-1.5 -12,-4.7 z"
         id="path77"
         inkscape:connector-curvature="0"
         style="fill:#e6382e" /><path
         class="st1"
         d="m 318.7,82.7 2.4,-3.3 c 2,2.3 5.7,4.3 9.8,4.3 4.6,0 7,-2.2 7,-5.1 0,-7.2 -18.5,-2.8 -18.5,-13.8 0,-4.6 4,-8.6 11.1,-8.6 5.1,0 8.7,1.9 11.1,4.3 l -2.2,3.2 c -1.8,-2.2 -5.1,-3.8 -8.9,-3.8 -4.1,0 -6.6,2 -6.6,4.7 0,6.6 18.5,2.2 18.5,13.8 0,5 -4,9 -11.7,9 -4.8,0 -9,-1.5 -12,-4.7 z"
         id="path79"
         inkscape:connector-curvature="0"
         style="fill:#e6382e" /></g></g><g
     id="g81"
     transform="translate(-30.4,-41.5)"><path
       class="st0"
       d="m 366.4,70.6 1.1,-1.4 3.4,2.6 -1.1,1.4 -3.4,-2.6 z"
       id="path83"
       inkscape:connector-curvature="0"
       style="fill:#e6342a" /><path
       class="st0"
       d="m 369.3,77.7 10.4,-6.2 -5,-3.7 1.2,-1.6 6.9,5.2 -1,1.3 -10.7,6.5 -1.8,-1.5 z"
       id="path85"
       inkscape:connector-curvature="0"
       style="fill:#e6342a" /><path
       class="st0"
       d="m 379.4,77.1 c 2,-2.7 5.2,-4.6 7.9,-2.6 2.7,2 1.7,5.7 -0.3,8.3 -2,2.6 -5.3,4.6 -7.9,2.6 -2.7,-2 -1.7,-5.7 0.3,-8.3 z m 6,4.5 c 1.5,-2 2.3,-4.2 0.8,-5.4 -1.6,-1.2 -3.5,0.2 -5,2.2 -1.5,2 -2.3,4.2 -0.8,5.4 1.5,1.2 3.4,-0.2 5,-2.2 z"
       id="path87"
       inkscape:connector-curvature="0"
       style="fill:#e6342a" /><path
       class="st0"
       d="m 385.2,89.7 14.1,-6 1,0.7 -14.1,6 -1,-0.7 z m 4.6,-9.2 c 1.1,-1.5 2.9,-1.9 4.4,-0.8 1.4,1.1 1.5,2.9 0.4,4.4 -1.1,1.5 -2.9,1.9 -4.4,0.8 -1.4,-1 -1.5,-2.9 -0.4,-4.4 z m 0.9,9.6 c 1.1,-1.5 2.9,-1.9 4.4,-0.8 1.4,1.1 1.5,2.9 0.4,4.4 -1.1,1.5 -2.9,1.9 -4.4,0.8 -1.4,-1.1 -1.5,-2.9 -0.4,-4.4 z m 2.8,-6.8 c 0.7,-0.9 0.7,-2 -0.1,-2.5 -0.7,-0.6 -1.8,-0.3 -2.5,0.6 -0.7,0.9 -0.6,2 0.1,2.5 0.8,0.5 1.8,0.3 2.5,-0.6 z m 0.9,9.5 c 0.7,-0.9 0.7,-2 -0.1,-2.5 -0.8,-0.5 -1.8,-0.3 -2.5,0.6 -0.7,0.9 -0.6,2 0.1,2.5 0.7,0.5 1.8,0.4 2.5,-0.6 z"
       id="path89"
       inkscape:connector-curvature="0"
       style="fill:#e6342a" /></g><path
     class="st1"
     d="M 384.1,39.6 C 382.6,36.1 362.4,15.3 343.4,9 l -0.2,-0.1 -0.2,0 c -4.6,0.4 -9.4,1.5 -13.5,2.7 -3.7,-3 -9.4,-5.2 -13.6,-6.4 -1.2,-0.4 -2.3,-0.7 -3.4,-1 -0.2,-1.3 -0.3,-2.7 -0.4,-4.2 l -2,0.1 c 0.1,1.2 0.2,2.4 0.3,3.6 -4.1,-1 -7.8,-1.4 -11.2,-1.5 l 0,2 c 3.5,0 7.3,0.5 11.6,1.6 0.9,5 3,9.2 7.4,12.5 1.3,4 4.6,15.2 4.8,20.8 0,1.4 1.6,2.4 6.7,5.6 6.7,4.2 17.9,11.3 28.5,22.8 0.4,0.5 1,0.7 1.7,0.7 6.3,0 23.8,-26.3 24.3,-27.5 0.2,-0.3 0,-0.9 -0.1,-1.1 z M 312.8,6.5 c 0.8,0.2 1.6,0.4 2.4,0.7 3.6,1.1 8.4,2.9 11.8,5.3 -5,1.6 -8.6,3.2 -8.9,3.3 l -0.1,0.1 c -2.8,-2.6 -4.4,-5.8 -5.2,-9.4 z m 47,59.9 c -0.2,0 -0.2,0 -0.3,-0.1 -10.8,-11.7 -22.2,-18.8 -29,-23.1 -2.7,-1.7 -5.4,-3.4 -5.8,-4.1 -0.1,-5 -2.6,-13.9 -4.2,-19 1.1,0.6 3.1,1.3 5,1.4 -0.1,1 0.2,1.9 0.8,2.8 0.7,0.9 1.7,1.6 2.9,1.8 0.3,0.1 0.6,0.1 0.9,0.1 2.2,0 4,-1.5 4.4,-3.5 0.4,-2.4 -1.2,-4.6 -3.7,-5.1 -0.3,-0.1 -0.6,-0.1 -0.9,-0.1 -1.6,0 -3,0.8 -3.8,2.1 -1.7,0 -3.8,-0.7 -4.7,-1.2 -0.6,-0.4 -1.2,-0.7 -1.8,-1.1 3.1,-1.3 13.7,-5.4 23.1,-6.2 17.8,6 37.7,26 39.3,29.3 -1.7,3.3 -17.8,26 -22.2,26 z M 328.7,21.1 c 0.8,-0.3 1.4,-0.9 1.8,-1.6 0,0 0.1,0 0.1,0 1.4,0.3 2.3,1.5 2.1,2.8 -0.2,1.2 -1.6,2.1 -2.9,1.8 -0.7,-0.1 -1.3,-0.5 -1.6,-1 -0.4,-0.5 -0.5,-1.1 -0.4,-1.7 0.2,-0.1 0.6,-0.2 0.9,-0.3 z"
     id="path91"
     inkscape:connector-curvature="0"
     style="fill:#e6382e" /></svg>