<?xml version="1.0" encoding="iso-8859-1"?>
<!-- Generator: Adobe Illustrator 15.1.0, SVG Export Plug-In . SVG Version: 6.00 Build 0)  -->
<!DOCTYPE svg PUBLIC "-//W3C//DTD SVG 1.1//EN" "http://www.w3.org/Graphics/SVG/1.1/DTD/svg11.dtd">
<svg version="1.1" id="Ebene_1" xmlns="http://www.w3.org/2000/svg" xmlns:xlink="http://www.w3.org/1999/xlink" x="0px" y="0px"
	 width="155.339px" height="62.627px" viewBox="0 0 155.339 40.627" style="enable-background:new 0 0 155.339 40.627;"
	 xml:space="preserve">
<g>
	<path style="fill:#263C81;" d="M59.932,10.618h-8.21c-0.562,0-1.04,0.407-1.126,0.962l-3.321,21.053
		c-0.066,0.415,0.256,0.791,0.678,0.791h3.92c0.561,0,1.039-0.407,1.126-0.964l0.896-5.68c0.087-0.555,0.565-0.963,1.126-0.963h2.6
		c5.408,0,8.529-2.618,9.344-7.803c0.368-2.27,0.016-4.052-1.047-5.301C64.75,11.342,62.68,10.618,59.932,10.618z M60.879,18.307
		c-0.449,2.945-2.7,2.945-4.876,2.945h-1.239l0.87-5.503c0.051-0.331,0.339-0.576,0.676-0.576h0.568c1.482,0,2.881,0,3.604,0.844
		C60.912,16.523,61.044,17.271,60.879,18.307z"/>
	<path style="fill:#263C81;" d="M84.473,18.212h-3.932c-0.336,0-0.624,0.244-0.676,0.577l-0.174,1.1l-0.275-0.397
		c-0.851-1.237-2.75-1.65-4.643-1.65c-4.344,0-8.056,3.291-8.777,7.908c-0.376,2.301,0.158,4.504,1.464,6.037
		c1.198,1.414,2.913,2.001,4.952,2.001c3.5,0,5.442-2.252,5.442-2.252l-0.175,1.093c-0.066,0.419,0.255,0.792,0.674,0.792h3.542
		c0.563,0,1.039-0.406,1.128-0.964l2.125-13.455C85.215,18.587,84.893,18.212,84.473,18.212z M78.993,25.864
		c-0.38,2.245-2.163,3.755-4.436,3.755c-1.142,0-2.054-0.367-2.64-1.061c-0.581-0.689-0.802-1.671-0.617-2.762
		c0.354-2.229,2.167-3.785,4.405-3.785c1.116,0,2.024,0.37,2.622,1.07C78.928,23.79,79.165,24.775,78.993,25.864z"/>
	<path style="fill:#263C81;" d="M105.411,18.212h-3.95c-0.377,0-0.731,0.186-0.944,0.5l-5.449,8.025l-2.31-7.714
		c-0.146-0.48-0.591-0.812-1.095-0.812H87.78c-0.471,0-0.799,0.46-0.648,0.905l4.352,12.77l-4.092,5.775
		c-0.322,0.455,0.002,1.08,0.559,1.08h3.945c0.375,0,0.727-0.183,0.938-0.49l13.14-18.966
		C106.288,18.833,105.964,18.212,105.411,18.212z"/>
	<path style="fill:#229BD2;" d="M118.492,10.618h-8.21c-0.561,0-1.039,0.407-1.127,0.962l-3.322,21.053
		c-0.064,0.415,0.258,0.791,0.676,0.791h4.213c0.393,0,0.727-0.286,0.789-0.676l0.941-5.968c0.088-0.555,0.566-0.963,1.126-0.963
		h2.599c5.408,0,8.529-2.618,9.345-7.803c0.368-2.27,0.015-4.052-1.048-5.301C123.308,11.342,121.24,10.618,118.492,10.618z
		 M119.44,18.307c-0.449,2.945-2.699,2.945-4.877,2.945h-1.238l0.871-5.503c0.051-0.331,0.336-0.576,0.674-0.576h0.568
		c1.48,0,2.881,0,3.604,0.844C119.472,16.523,119.603,17.271,119.44,18.307z"/>
	<path style="fill:#229BD2;" d="M143.032,18.212h-3.93c-0.337,0-0.623,0.244-0.674,0.577l-0.174,1.1l-0.276-0.397
		c-0.851-1.237-2.748-1.65-4.642-1.65c-4.346,0-8.054,3.291-8.777,7.908c-0.374,2.301,0.156,4.504,1.464,6.037
		c1.2,1.414,2.913,2.001,4.952,2.001c3.5,0,5.44-2.252,5.44-2.252l-0.175,1.093c-0.065,0.419,0.256,0.792,0.677,0.792h3.54
		c0.561,0,1.037-0.406,1.127-0.964l2.125-13.455C143.774,18.587,143.454,18.212,143.032,18.212z M137.551,25.864
		c-0.377,2.245-2.161,3.755-4.436,3.755c-1.14,0-2.055-0.367-2.641-1.061c-0.58-0.689-0.799-1.671-0.616-2.762
		c0.356-2.229,2.167-3.785,4.405-3.785c1.116,0,2.023,0.37,2.621,1.07C137.488,23.79,137.725,24.775,137.551,25.864z"/>
	<path style="fill:#229BD2;" d="M147.667,11.195l-3.37,21.438c-0.065,0.415,0.257,0.791,0.675,0.791h3.389
		c0.563,0,1.039-0.407,1.126-0.964l3.323-21.053c0.065-0.415-0.256-0.79-0.674-0.79h-3.794
		C148.006,10.618,147.717,10.863,147.667,11.195z"/>
	<path style="fill:#263C81;" d="M13.18,37.513l0.628-3.988l-1.398-0.032H5.731l4.641-29.426c0.014-0.09,0.062-0.173,0.13-0.229
		c0.068-0.061,0.156-0.092,0.248-0.092h11.26c3.738,0,6.317,0.777,7.665,2.313c0.632,0.72,1.034,1.473,1.228,2.301
		c0.205,0.869,0.208,1.907,0.008,3.174l-0.014,0.093v0.812l0.63,0.357c0.532,0.282,0.956,0.605,1.28,0.976
		c0.54,0.615,0.889,1.397,1.037,2.327c0.152,0.953,0.102,2.09-0.148,3.374c-0.288,1.48-0.753,2.768-1.382,3.822
		c-0.58,0.971-1.316,1.775-2.191,2.401c-0.835,0.591-1.828,1.042-2.951,1.329c-1.087,0.283-2.327,0.428-3.688,0.428h-0.876
		c-0.627,0-1.236,0.226-1.714,0.63c-0.479,0.412-0.796,0.978-0.893,1.595l-0.066,0.357l-1.109,7.03l-0.05,0.258
		c-0.014,0.082-0.036,0.122-0.07,0.149c-0.03,0.026-0.073,0.042-0.115,0.042H13.18z"/>
	<path style="fill:#229BD2;" d="M32.126,11.72L32.126,11.72L32.126,11.72c-0.034,0.214-0.073,0.435-0.115,0.658
		c-1.486,7.625-6.566,10.259-13.054,10.259h-3.304c-0.794,0-1.463,0.578-1.586,1.36l0,0l0,0l-1.69,10.728l-0.48,3.041
		c-0.08,0.513,0.316,0.976,0.834,0.976h5.86c0.694,0,1.283-0.504,1.392-1.188l0.058-0.297l1.103-7.001l0.072-0.386
		c0.108-0.687,0.698-1.19,1.393-1.19h0.876c5.676,0,10.121-2.305,11.419-8.975c0.543-2.786,0.262-5.113-1.174-6.749
		C33.295,12.462,32.756,12.052,32.126,11.72z"/>
	<path style="fill:#222E66;" d="M30.572,11.1c-0.227-0.065-0.46-0.126-0.7-0.181c-0.241-0.052-0.489-0.1-0.744-0.14
		c-0.891-0.145-1.866-0.213-2.912-0.213H17.39c-0.217,0-0.424,0.05-0.608,0.139c-0.407,0.195-0.71,0.58-0.783,1.054L14.121,23.65
		l-0.054,0.348c0.124-0.782,0.792-1.36,1.586-1.36h3.304c6.488,0,11.568-2.635,13.054-10.259c0.043-0.224,0.081-0.444,0.115-0.658
		c-0.376-0.2-0.783-0.369-1.222-0.517C30.796,11.167,30.686,11.132,30.572,11.1z"/>
	<path style="fill:#263C81;" d="M15.999,11.759c0.073-0.474,0.376-0.858,0.783-1.053c0.186-0.089,0.391-0.139,0.608-0.139h8.826
		c1.046,0,2.021,0.069,2.912,0.213c0.255,0.041,0.502,0.088,0.744,0.14c0.24,0.055,0.474,0.114,0.7,0.181
		c0.114,0.033,0.225,0.068,0.334,0.103c0.438,0.147,0.845,0.317,1.221,0.517c0.441-2.818-0.004-4.737-1.527-6.474
		c-1.679-1.911-4.71-2.731-8.588-2.731H10.75c-0.792,0-1.468,0.576-1.59,1.361L4.47,33.605c-0.092,0.588,0.362,1.12,0.954,1.12
		h6.953l1.745-11.075L15.999,11.759z"/>
</g>
</svg>
