<?xml version="1.0" encoding="iso-8859-1"?>
<!-- Generator: Adobe Illustrator 15.1.0, SVG Export Plug-In . SVG Version: 6.00 Build 0)  -->
<!DOCTYPE svg PUBLIC "-//W3C//DTD SVG 1.1//EN" "http://www.w3.org/Graphics/SVG/1.1/DTD/svg11.dtd">
<svg version="1.1" id="Ebene_1" xmlns="http://www.w3.org/2000/svg" xmlns:xlink="http://www.w3.org/1999/xlink" x="0px" y="0px"
	 width="114.177px" height="62.859px" viewBox="0 0 114.177 37.859" style="enable-background:new 0 0 114.177 37.859;"
	 xml:space="preserve">
<path style="fill:#003278;" d="M43.888,1.531L29.265,36.42h-9.542L12.528,8.575c-0.438-1.715-0.817-2.342-2.146-3.063
	C8.214,4.334,4.631,3.23,1.478,2.544l0.216-1.013H17.05c1.957,0,3.718,1.302,4.163,3.556l3.8,20.191l9.393-23.747H43.888z
	 M81.272,25.029c0.039-9.209-12.734-9.717-12.646-13.83c0.027-1.253,1.219-2.582,3.828-2.923c1.295-0.169,4.856-0.299,8.9,1.562
	l1.583-7.398c-2.171-0.789-4.966-1.547-8.442-1.547c-8.92,0-15.2,4.743-15.254,11.534c-0.056,5.022,4.482,7.825,7.903,9.495
	c3.515,1.71,4.696,2.805,4.683,4.335c-0.023,2.343-2.806,3.373-5.4,3.415c-4.539,0.071-7.172-1.226-9.272-2.203l-1.635,7.644
	c2.108,0.97,6,1.811,10.038,1.854C75.038,36.967,81.241,32.281,81.272,25.029 M104.828,36.42h8.349l-7.285-34.889h-7.707
	c-1.73,0-3.191,1.007-3.842,2.56L80.802,36.42h9.478l1.882-5.21h11.58L104.828,36.42z M94.759,24.059l4.751-13.101l2.734,13.101
	H94.759z M56.785,1.531L49.32,36.42h-9.025L47.76,1.531H56.785z"/>
</svg>
