<?xml version="1.0" encoding="UTF-8" standalone="no"?>
<!-- Generator: Adobe Illustrator 15.1.0, SVG Export Plug-In . SVG Version: 6.00 Build 0)  -->

<svg
   xmlns:dc="http://purl.org/dc/elements/1.1/"
   xmlns:cc="http://creativecommons.org/ns#"
   xmlns:rdf="http://www.w3.org/1999/02/22-rdf-syntax-ns#"
   xmlns:svg="http://www.w3.org/2000/svg"
   xmlns="http://www.w3.org/2000/svg"
   xmlns:sodipodi="http://sodipodi.sourceforge.net/DTD/sodipodi-0.dtd"
   xmlns:inkscape="http://www.inkscape.org/namespaces/inkscape"
   version="1.1"
   id="Ebene_1"
   x="0px"
   y="0px"
   width="640"
   height="480"
   viewBox="0 0 639.99998 480"
   xml:space="preserve"
   inkscape:version="0.91 r13725"
   sodipodi:docname="row_icon.svg"><metadata
     id="metadata115"><rdf:RDF><cc:Work
         rdf:about=""><dc:format>image/svg+xml</dc:format><dc:type
           rdf:resource="http://purl.org/dc/dcmitype/StillImage" /><dc:title></dc:title></cc:Work></rdf:RDF></metadata><defs
     id="defs113" /><sodipodi:namedview
     pagecolor="#ffffff"
     bordercolor="#666666"
     borderopacity="1"
     objecttolerance="10"
     gridtolerance="10"
     guidetolerance="10"
     inkscape:pageopacity="0"
     inkscape:pageshadow="2"
     inkscape:window-width="1680"
     inkscape:window-height="987"
     id="namedview111"
     showgrid="false"
     inkscape:zoom="0.48962656"
     inkscape:cx="320.20001"
     inkscape:cy="241"
     inkscape:window-x="-8"
     inkscape:window-y="-8"
     inkscape:window-maximized="1"
     inkscape:current-layer="Ebene_1" /><style
     type="text/css"
     id="style3"><![CDATA[
	.st0{display:inline;fill:#FFFFFF;}
	.st1{fill-rule:evenodd;clip-rule:evenodd;fill:#FFFFFF;}
	.st2{display:none;}
	.st3{fill-rule:evenodd;clip-rule:evenodd;fill:#0378B9;}
]]></style><g
     class="st2"
     id="g5"
     style="display:none"
     transform="translate(0,-2)"><path
       class="st0"
       d="m 326.6,20.8 c 2.8,-11.5 7.2,0 12.5,0 -1.5,-3.8 -2.9,-7.7 -4.2,-11.7 14.3,2.7 15,-4.8 14.6,-10.5 l -95.5,0 c 6.5,6.2 20.1,-5.9 14.2,15.5 2.1,2.8 5,-3.5 7.4,1.5 1.9,3.9 -7.5,2.3 -7.4,1.8 -4.3,4.6 -11.1,33.7 3.4,41.7 14.6,-6.9 13.8,-16.4 30.9,-21.7 9.7,-3 29.1,-8.3 38.4,-14.2 -5,-0.1 -9.7,-0.9 -14.3,-2.4 z"
       id="path7"
       inkscape:connector-curvature="0"
       style="display:inline;fill:#ffffff" /><path
       class="st0"
       d="M 110.6,3.2 C 103.4,5.3 91.8,2 79.9,-1.4 l -41.5,0 c -1.6,2.3 -2.6,5.5 -2.8,9.6 -6.7,-2.5 -13.3,-2.5 -20,0 1.3,2.8 3.5,4.2 6.7,4.2 C 20.5,15.7 3,20.7 -3.5,22.7 l 0,3.4 c 3,2 8,2.5 0,3.4 l 0,1.5 c 3,0.7 6,0.9 9.1,0.6 -2.9,2.1 -6,3.9 -9.1,5.5 l 0,1.7 c 11.3,-4.2 22.6,-10.1 35,-12.2 -5,2.3 -9.7,5.1 -14.2,8.4 10.6,0.8 43.3,0.9 29.9,18.3 -1.9,2.4 1.9,25.3 -10.8,20.1 0.3,2.3 0.6,4.3 0.9,6 L 104.8,8.2 c 1.7,-1.9 3.6,-3.5 5.8,-5 z"
       id="path9"
       inkscape:connector-curvature="0"
       style="display:inline;fill:#ffffff" /><path
       class="st0"
       d="m 230.7,107.6 c 6,-7.4 -4.3,-25.5 -10.8,-25.9 2,-2.2 4.5,-3.3 7.5,-3.3 -0.3,-0.6 -4.6,-18.8 -5,-22.5 -22.4,2 -13.4,-20.4 -40,2.5 l 44.2,30.1 c -10.9,24.3 -13.4,12.1 4.1,19.1 z"
       id="path11"
       inkscape:connector-curvature="0"
       style="display:inline;fill:#ffffff" /><path
       class="st0"
       d="m 188.2,116.8 c 5.3,-0.6 10.6,-1.5 15.8,-2.5 0.5,-4.9 -3.8,-9.8 -2.5,-15 -6.5,-2.8 -12.7,-1.9 -18.3,2.5 l 12.5,8.4 c -2,2.8 -4.5,5 -7.5,6.6 z"
       id="path13"
       inkscape:connector-curvature="0"
       style="display:inline;fill:#ffffff" /><path
       class="st0"
       d="m 247.4,308.9 c -11.4,-8.1 -27.7,-18.2 -39.2,-10 1.5,-1.6 2.8,-3.3 4.2,-5 -4.5,-2.6 -8.4,-1.7 -11.7,2.5 1.3,-31.4 -18.8,-24.4 -27.5,-50.1 -18.9,3.7 -27,-15.9 -34.2,5 -3.1,-3.8 -2.8,-7.7 0.8,-11.7 -5.2,1.5 -36.8,24.4 -40.2,6.5 C 95,221.9 84.9,221.6 96.5,202 78.7,195.1 60.6,230.8 64,186.1 c 10.9,-8 17.5,-26 35.9,-14.2 L 37.3,79.4 C 22.3,91 11.6,169 24.7,190.3 c 9.6,-6.4 -9.3,-28.4 0,-37.6 18.2,12.6 0,80 40.9,67.6 12.1,3.2 21.1,18.3 26.7,27.6 12.6,15.7 24.4,-1.7 25.3,15.2 1,16.9 -6.8,16.4 -13.7,30.8 0.5,13 8.1,39.3 19.2,53.4 19.3,24.5 21.1,25.7 26.4,56.7 2.1,12.6 -3.7,55.5 14.5,61 0.2,3.9 1.9,8.7 4.3,13.6 l 15.3,0 c -1,-7.9 -0.5,-15.9 -3.7,-24.4 0.9,-10.1 16.6,-10.9 20.8,-15.9 -2.6,-4.3 -4.8,-8.7 -6.7,-13.4 10.6,0.6 18.2,-7.8 18.3,-10.9 7.8,-14.2 0.9,-19.6 12.6,-30.6 14.5,-13.6 20.2,-12.8 18.3,-38.7 -0.5,-14.2 24.9,-21.2 4.2,-35.8 z"
       id="path15"
       inkscape:connector-curvature="0"
       style="display:inline;fill:#ffffff" /><path
       class="st0"
       d="m 187.6,17.9 c -0.2,-0.7 -0.1,-0.4 0,0 l 0,0 z"
       id="path17"
       inkscape:connector-curvature="0"
       style="display:inline;fill:#ffffff" /><path
       class="st0"
       d="m 362.2,125.8 c 0.1,0.1 0.2,0.1 0.2,0.2 0.1,-0.1 0,-0.2 -0.2,-0.2 z"
       id="path19"
       inkscape:connector-curvature="0"
       style="display:inline;fill:#ffffff" /><path
       class="st0"
       d="m 607.6,12.4 c 1.6,-5.3 6.8,-5.7 8.3,-11.7 -0.7,-0.8 -1.4,-1.5 -2.2,-2.1 l -32.6,0 c -10.6,4 -20.1,10 -23.5,13 l 39.2,194.6 c -1.6,2.4 -3.9,3.2 -6.7,2.5 17.1,9.9 2.5,-0.5 14.2,1.7 -0.1,8.1 9.9,52.2 20.8,54.3 5.7,-9.9 7.4,-20.5 5,-31.7 2,-2.3 4.1,-4.6 6.3,-6.7 l 0,-219.2 C 626,4.1 616,3.1 607.6,12.4 Z"
       id="path21"
       inkscape:connector-curvature="0"
       style="display:inline;fill:#ffffff" /><path
       class="st0"
       d="m 535,200.3 c 7,-7.1 -1.3,-5.8 -3.7,-4.4 L 541.4,32.4 c -7.7,-2.2 -35.7,1.1 -33.1,-4.1 -5.8,4 -12.2,6.5 -19.2,7.5 0.6,-1.3 1.4,-2.4 2.5,-3.3 -12.1,0 -5.4,-6.2 -4.2,10 -11.9,1.8 -18.1,12.7 -28.4,-5.8 6.5,5.2 13.1,5.5 20,0.8 -17.1,-37.2 -86.3,1.3 -81.7,32.6 6.1,3.9 9.4,2.5 10,-4.2 32.6,39.4 2.6,-26.4 32.5,-25.1 8.3,3.3 -9.9,10.8 -4.7,20.6 6.3,11.7 13.5,-5.4 23,4.5 -23.8,7.6 -29,34.5 -50.9,8.4 -1.6,1.9 -20.1,42.3 -30.7,30.7 0.8,0.9 -9.8,1.4 -10.2,4.4 8.6,-0.5 15.7,21.4 -4.2,16.7 l 0,0 c 0,0 0,0 0,0 l 0,0 c 0,-0.1 -0.1,-0.1 -0.2,-0.2 -1.4,-1.2 -7.3,-1.1 -8.1,0.2 l 5.5,0 c -3.1,0.5 -7.7,1.6 -8,1.7 0,0.5 0,1.1 0,1.7 0,0 0,0 0,0 -0.2,0.8 -1.1,7.8 -1,7.1 -0.3,4.4 0,9 -0.2,10.1 -5.1,27.1 40.4,-18 39,-18.9 12.6,-0.5 30.3,3 31.5,20.9 7.9,0 1.1,-5.4 8.3,-6.7 -0.6,-0.3 -27,-22.8 -14.2,-21.7 0.1,-0.9 25.1,35.1 28.4,35.1 -0.1,-3.2 1.3,-4.3 4.2,-3.3 0.4,-1.5 -8.5,-10.4 -5,-11.7 4,1.4 5.4,-0.6 9.2,-3.3 8.2,7.4 0.7,12.5 9.8,18.5 5.3,3.5 16.8,-5.1 21.9,-0.1 1.3,31.4 -71.8,23.9 -75,-2.5 -53.2,-12 -74.8,30.4 -86.8,73.6 -14.3,51.5 52,45.3 77.4,50.1 -0.4,-0.1 14.3,62.1 14.4,62.5 -22,29.4 17.5,52.7 7.5,82.7 40.3,8.8 30.7,-18.6 58.4,-32.6 2.1,-10.6 34.9,-56.9 16.7,-69.7 -6,-4.2 43.5,-52.9 40,-68.1 -25.9,-0.9 -33.9,-3.2 -45.5,-32.1 -0.6,-1.5 -18.8,-39 -17.1,-41.4 3.4,18.8 40.8,39.5 37.5,67.6 20.1,0.8 43.7,-19.3 49.9,-32.7 C 571.9,188.6 537.8,201 535,200.3 Z"
       id="path23"
       inkscape:connector-curvature="0"
       style="display:inline;fill:#ffffff" /><path
       class="st0"
       d="m 533.4,13.3 c -0.2,-0.4 -0.2,-0.5 0,0 0,0 0,0 0,0 z"
       id="path25"
       inkscape:connector-curvature="0"
       style="display:inline;fill:#ffffff" /><path
       class="st0"
       d="m 405,131 c -8.1,0.6 -0.1,11.9 0,0 l 0,0 z"
       id="path27"
       inkscape:connector-curvature="0"
       style="display:inline;fill:#ffffff" /><path
       class="st0"
       d="m 632.6,258.8 c -3.5,5 -3.2,9.7 0.8,14.2 1.3,-1 2.3,-2 3,-3 l 0,-7.7 c -0.9,-1.1 -2.1,-2.3 -3.8,-3.5 z"
       id="path29"
       inkscape:connector-curvature="0"
       style="display:inline;fill:#ffffff" /><path
       class="st0"
       d="m 372.4,90.1 c -6.4,-2.3 -5.7,7.1 -8.3,10.9 32.3,-3.4 15.7,-9.8 11.7,-27.6 -19.1,3.1 4.4,11.1 -3.4,16.7 z"
       id="path31"
       inkscape:connector-curvature="0"
       style="display:inline;fill:#ffffff" /><path
       class="st0"
       d="m 363.3,80.9 c -2.9,2.2 -6.3,3.3 -10,3.3 -0.3,1 -0.8,9.6 -0.8,11.7 15,7.4 9.9,-12.4 10.8,-15 z"
       id="path33"
       inkscape:connector-curvature="0"
       style="display:inline;fill:#ffffff" /><path
       class="st0"
       d="m 209.8,110.1 c 2.5,-14.3 -10.9,10.6 0,0 l 0,0 z"
       id="path35"
       inkscape:connector-curvature="0"
       style="display:inline;fill:#ffffff" /><path
       class="st0"
       d="m 420,154.4 c 1.7,-8.6 -2.7,-3.6 -7.5,-5.8 0.9,3.8 3.4,5.8 7.5,5.8 z"
       id="path37"
       inkscape:connector-curvature="0"
       style="display:inline;fill:#ffffff" /><path
       class="st0"
       d="m 479.2,159.4 c -0.2,-3.8 -19.5,4 0,0 l 0,0 z"
       id="path39"
       inkscape:connector-curvature="0"
       style="display:inline;fill:#ffffff" /><path
       class="st0"
       d="m 133.1,213.7 c 0.6,7.7 19.8,0.9 20.8,0.8 -2.9,-11.6 -16.5,-0.2 -20.8,-0.8 z"
       id="path41"
       inkscape:connector-curvature="0"
       style="display:inline;fill:#ffffff" /><path
       class="st0"
       d="m 120.6,213.7 c 0.5,7.5 16.1,-3.1 0,0 l 0,0 z"
       id="path43"
       inkscape:connector-curvature="0"
       style="display:inline;fill:#ffffff" /><path
       class="st0"
       d="m 527.5,340.6 c 0.5,3.1 -21.4,40.1 -22.5,40.9 8.6,38.3 36.5,-32.7 22.5,-40.9 z"
       id="path45"
       inkscape:connector-curvature="0"
       style="display:inline;fill:#ffffff" /><path
       class="st0"
       d="m 405,138.5 c -14.2,-0.5 8.9,18.2 0,0 l 0,0 z"
       id="path47"
       inkscape:connector-curvature="0"
       style="display:inline;fill:#ffffff" /><path
       class="st0"
       d="m 444.1,158.6 c 3.3,0.6 6.7,1.1 10,1.7 -2.9,-3.5 -6.2,-4 -10,-1.7 z"
       id="path49"
       inkscape:connector-curvature="0"
       style="display:inline;fill:#ffffff" /><path
       class="st0"
       d="m 128.1,193.6 c 13.1,-12.4 -9.7,-1.6 0,0 l 0,0 z"
       id="path51"
       inkscape:connector-curvature="0"
       style="display:inline;fill:#ffffff" /><path
       class="st0"
       d="m 125.6,209.5 c 3.6,0 7.2,0 10.8,0 -4.5,-10.6 -24,-19 -33.4,-9.2 4.7,4.2 20,-0.4 22.6,9.2 z"
       id="path53"
       inkscape:connector-curvature="0"
       style="display:inline;fill:#ffffff" /></g><g
     id="g55"
     transform="translate(0,-2)"><path
       class="st1"
       d="m 174,0 c 4,0 8,0 12,0 -3.5,4.1 -6.5,3.9 -14,5 0,-1.3 0,-2.7 0,-4 0.8,-0.2 2,0 2,-1 z"
       id="path57"
       inkscape:connector-curvature="0"
       style="clip-rule:evenodd;fill:#ffffff;fill-rule:evenodd" /><path
       class="st1"
       d="m 507.1,0 c 5,0 10,0 15,0 -6.1,3.9 -15.8,4.2 -20,10 -1.1,6 5.6,6.9 7,13 -8.5,1.6 -9.3,-4.7 -16,-5 0.8,-0.7 2.2,-5.6 0,-6 0.1,-2.2 2.5,-2.2 5,-2 -1,-2.8 1.7,-6.9 0,-7 1.9,-2.1 7.4,-0.6 9,-3 z"
       id="path59"
       inkscape:connector-curvature="0"
       style="clip-rule:evenodd;fill:#ffffff;fill-rule:evenodd" /><path
       class="st1"
       d="m 348.1,38.1 c 0,2.3 0,4.7 0,7 -8.6,4.8 -18.2,6 -25,-1 0.5,-3.2 1.8,-5.6 3,-8 8,4.2 12.2,0.4 22,2 z"
       id="path61"
       inkscape:connector-curvature="0"
       style="clip-rule:evenodd;fill:#ffffff;fill-rule:evenodd" /><path
       class="st1"
       d="m 371.1,67.2 c -1.6,3.4 0.1,3 2,5 0.5,2.2 -1.9,1.4 -2,3 6.5,1.9 4.2,12.5 11,14 -0.2,3.7 -1.4,3.8 0,7 -9,-1 -13.4,2.6 -21,3 -0.1,-3.2 2.6,-3.4 5,-4 -0.7,-1.3 -2.1,-1.9 -4,-2 0.2,-3.8 4.2,-3.8 4,-8 1.5,0.5 2.5,1.5 4,2 -0.2,-4.8 -3.9,-6.2 -7,-8 -0.7,-7.3 1.5,-11.8 8,-12 z"
       id="path63"
       inkscape:connector-curvature="0"
       style="clip-rule:evenodd;fill:#ffffff;fill-rule:evenodd" /><path
       class="st1"
       d="m 361.1,78.3 c -0.7,2.7 2,2 2,4 -2.1,6.5 -3.5,13.9 -14,12 -1.1,-4.7 1.7,-5.6 4,-7 -1.4,-1.6 -4,-2 -3,-6 5.6,3.5 4.8,-4.2 11,-3 z"
       id="path65"
       inkscape:connector-curvature="0"
       style="clip-rule:evenodd;fill:#ffffff;fill-rule:evenodd" /><path
       class="st1"
       d="m 402.1,128.4 c -1.8,6.7 5,14.1 -4,16.1 0.3,-3 -1.1,-7.8 2,-8 -0.1,-1.9 -3.3,-0.7 -3,-3 0.6,-2.8 1.1,-5.7 5,-5.1 z"
       id="path67"
       inkscape:connector-curvature="0"
       style="clip-rule:evenodd;fill:#ffffff;fill-rule:evenodd" /><path
       class="st1"
       d="m 451.1,156.5 c -0.8,4.4 -9.5,1.4 -11,0 0.8,-3.4 10.1,-2.5 11,0 z"
       id="path69"
       inkscape:connector-curvature="0"
       style="clip-rule:evenodd;fill:#ffffff;fill-rule:evenodd" /><path
       class="st1"
       d="m 125,184.6 c 4.9,-1.8 3.9,8.6 0,7 0,-2.3 0,-4.6 0,-7 z"
       id="path71"
       inkscape:connector-curvature="0"
       style="clip-rule:evenodd;fill:#ffffff;fill-rule:evenodd" /><path
       class="st1"
       d="m 135,207.7 c -4,0 -8,0 -12,0 3.6,-8.2 -13.1,-12.7 -22,-9 8.2,-11.8 31.5,-3 34,9 z"
       id="path73"
       inkscape:connector-curvature="0"
       style="clip-rule:evenodd;fill:#ffffff;fill-rule:evenodd" /><path
       class="st1"
       d="m 118,211.7 c 1.5,-2.4 6.9,-0.3 8,1 -0.5,4.7 -7.5,0.9 -8,-1 z"
       id="path75"
       inkscape:connector-curvature="0"
       style="clip-rule:evenodd;fill:#ffffff;fill-rule:evenodd" /><path
       class="st1"
       d="m 627.2,255.9 c 6.3,-0.1 8.4,8.6 6,14 -2.4,-0.4 -2.2,1.8 -5,1 -2.7,-4.2 -3.8,-10.3 -1,-15 z"
       id="path77"
       inkscape:connector-curvature="0"
       style="clip-rule:evenodd;fill:#ffffff;fill-rule:evenodd" /><path
       class="st1"
       d="m 523.1,337.2 c 11.4,4.7 3,14.1 1,21.1 -0.5,1.8 1.2,4.2 1,6 -1.2,10.4 -11.4,20.8 -13,28.1 -19.1,-3.5 -4.7,-22.3 -6,-38.1 5.4,0.8 7.8,-1.5 11,-3 0.1,-6.5 6,-5.9 6,-14.1 z"
       id="path79"
       inkscape:connector-curvature="0"
       style="clip-rule:evenodd;fill:#ffffff;fill-rule:evenodd" /><g
       id="g81"><path
         class="st3"
         d="M 14,6 C 18.1,1.8 29.2,4.6 34,6 34.3,3.1 31.7,2.9 32,0 21.3,0 10.7,0 0,0 0,5 0,10 0,15.1 4.9,12.7 13.3,13.7 19,12.1 19.4,8 12.4,11.3 14,6 Z"
         id="path83"
         inkscape:connector-curvature="0"
         style="clip-rule:evenodd;fill:#0378b9;fill-rule:evenodd" /><path
         class="st3"
         d="m 611.2,4 c 4.2,1.8 8.3,-1.2 10,4 0.5,-1.5 -1.2,-5.2 1,-5 8.9,-1.9 8.5,5.5 16,5 -2.8,-4.5 3.3,-2.5 2,-8 -9.3,0 -18.7,0 -28,0 -1.5,4.1 -6.6,4.7 -9,8 3,2.4 7.1,-1 8,-4 z"
         id="path85"
         inkscape:connector-curvature="0"
         style="clip-rule:evenodd;fill:#0378b9;fill-rule:evenodd" /><path
         class="st3"
         d="m 551.1,26.1 c -1.2,0.2 -2.8,-0.2 -3,1 2.2,0.4 0.4,4.9 1,7 -3.2,-0.2 -4.2,1.8 -8,1 0,3 3.5,2.5 6,3 2.5,-2.8 4.7,-6 4,-12 z"
         id="path87"
         inkscape:connector-curvature="0"
         style="clip-rule:evenodd;fill:#0378b9;fill-rule:evenodd" /><path
         class="st3"
         d="m 173,28.1 c 4.1,-0.8 4.5,2.1 6,4 1,-2 2.5,-3.5 4,-5 -3,0.6 -8.6,-1.3 -10,1 z"
         id="path89"
         inkscape:connector-curvature="0"
         style="clip-rule:evenodd;fill:#0378b9;fill-rule:evenodd" /><path
         class="st3"
         d="m 457.1,134.5 c 2.5,-4.1 4.9,0.3 9,0 1.3,-2.1 1.6,-5.1 5,-5 6.5,1.9 13.5,7.3 22,4 0.4,-9.7 -10.8,-7.9 -14,-14 -0.5,-3.2 3.1,-2.3 2,-6 -1.6,-2.8 -3.7,2.2 -6,2 -0.7,3.4 4.1,1.3 3,5 -2.6,0.4 -3,3 -6,3 -2.1,-1.9 -6.1,-1.9 -5,-7 -7.5,1 -14.7,11.1 -10,18 z"
         id="path91"
         inkscape:connector-curvature="0"
         style="clip-rule:evenodd;fill:#0378b9;fill-rule:evenodd" /><path
         class="st3"
         d="m 533.1,148.5 c 0.5,-6.5 -5.6,-6.4 -6,-12 2,-1 4.3,-1.7 5,-4 -2.1,-2.2 -2.9,0.5 -6,0 0.4,-6.1 -7.1,-4.3 -8,-9 1.6,-3.4 5.7,-4.3 6,-9 -4,-2.1 -8,0.3 -12,1 -5.7,10.1 6.9,14.6 9,23.1 -1.4,1.9 -2.6,4 -3,7 3.4,2.6 10.6,4.4 15,2.9 z"
         id="path93"
         inkscape:connector-curvature="0"
         style="clip-rule:evenodd;fill:#0378b9;fill-rule:evenodd" /><path
         class="st3"
         d="m 544.1,122.4 c 3.5,0.8 2.3,-8.3 1,-9 -1.1,1.4 -5.9,8 -1,9 z"
         id="path95"
         inkscape:connector-curvature="0"
         style="clip-rule:evenodd;fill:#0378b9;fill-rule:evenodd" /><path
         class="st3"
         d="m 164,18.1 c 1.4,-1.2 1.3,-4 4,-4 3,-1 1.8,2.2 2,4 2.9,0.3 3.1,-2.3 6,-2 2.3,-2.4 -2.2,-3.7 -1,-8 4.7,-0.7 6,-4.7 12,-4 0.4,4.4 -0.3,7.8 -2,10 2.3,-1.4 4.6,3.9 2,7 4.6,-1 5.2,-6.1 10,-7 -1.8,-3 -5.2,-8.8 -1,-12 -1.9,1.8 -6.6,0.7 -10,1 0.5,-0.8 1,-1.6 1,-3 -0.3,0 -0.7,0 -1,0 -3.5,4.1 -6.5,3.9 -14,5 0,-1.3 0,-2.7 0,-4 0.8,-0.2 2,0 2,-1 -2.3,0 -4.7,0 -7,0 0.4,3.4 -3,3 -4,5 -1.6,3.6 3.4,0.6 3,3 -4.9,3.9 -6.8,4.9 -14,3 -0.1,6.4 8,4.7 12,7 z"
         id="path97"
         inkscape:connector-curvature="0"
         style="clip-rule:evenodd;fill:#0378b9;fill-rule:evenodd" /><path
         class="st3"
         d="m 627.2,229.8 c 0.5,13.2 0.1,25.5 -6,32.1 -7,-0.3 -5.2,-6.7 -7,-11 -5.4,-13.4 -15.2,-23.2 -14,-43.1 -3.3,0 -2.4,4.3 -6,4 -4.1,-0.9 -6.9,-3.1 -8,-7 2.6,-1.1 4.8,3 6,0 -0.1,-2.2 -4.2,-0.4 -6,-1 -3.5,-15.2 -32.8,-4.6 -41,-15.1 -3.2,-0.2 -4.2,1.8 -8,1 -6.2,-3.3 -9.3,-14.6 -17,-13 0.5,5 5.6,14.5 12,14 1.4,1.3 1,4.4 1,7 6.7,0.4 6.6,-6.1 12,-7 2.9,6.4 10.1,8.6 14,14 -2.8,11.2 -8.5,14 -14,23.1 -15.9,1.8 -20.1,15.3 -38,15.1 -5.1,-24.7 -18.7,-40.8 -29,-60.2 -1.5,0.5 -2.5,1.5 -4,2 -0.1,7.1 4.3,9.8 8,13 2.5,23.5 17.3,34.8 26,52.2 1.2,-0.2 1.8,0.2 2,1 8.8,0.1 14.1,-3.2 23,-3 -2.2,37 -42.2,43.3 -41,77.3 12.7,18.9 -1.7,36.7 -16,43.1 0.7,5 1.4,10 1,16.1 -2,3.3 -6.3,4.3 -9,7 -0.9,21.4 -34.4,43 -51,27.1 5.9,-17.2 -14.2,-27.1 -7,-42.1 -10.8,-8.6 -9.2,-31.8 0,-41.1 -2.1,-15.3 -8.3,-26.5 -14,-38.1 1.6,-6.1 2.5,-12.9 3,-20.1 -0.7,-4.3 -7.2,-2.8 -12,-3 -0.7,-2.9 -2.4,-4.9 -4,-7 -14.6,1.1 -26,5.4 -42,5 -11.2,-8.1 -16.4,-22.4 -26,-32.1 -0.3,-11.4 7.8,-21.4 2,-32.1 5.2,-13.8 11.4,-26.7 25,-32.1 -1.7,-14.1 11.6,-13.1 13,-24.1 15.4,7.3 35.2,-6 51,-2 0.7,5.1 -1.4,7.3 -2,11 1.5,4.9 6.5,6.2 13,6 0.6,5.4 6,6 11,7 2.6,-1.1 3.3,-4.1 3,-8 8.7,-5.3 12.8,3.4 17,5 7.7,3 14.4,-2.1 24,1 5.3,-3.4 7.6,-9.8 7,-19.1 -2.7,0 -5.7,-0.4 -7,1 -0.7,2.7 4.7,-0.7 4,2 -0.1,3.9 -3.9,4.1 -8,4 1.1,-4.9 2.4,-4.7 -1,-8 -3.8,-0.8 -2.2,3.8 -5,4 -3.5,0.7 -5.3,-5.3 -8,-2 -2.8,-7 -3.9,-9.5 -6,-18.1 -6.5,-2 -2.3,7.9 -8,4 0,4.3 4.4,4.3 5,8 -0.8,2.8 -4.6,2.7 -5,6 -3.6,-0.2 -7.8,-3.5 -5,-7 -5.3,-9.4 -12.7,-16.7 -19,-25.1 -1.4,3.5 -5.7,1.2 -5,-3 -6,10.7 13.6,12.3 15,22.1 -5.5,-3.2 -0.9,8.9 -9,6 0,2 0,4 0,6 -3.9,-1.1 -9.2,-0.8 -8,-7 4.4,0.1 9.6,1 9,-4 -6.1,-6.2 -13.9,-10.8 -19,-18.1 -2.9,0.4 -2.4,4.3 -5,5 -3.4,0 -5.3,-1.4 -7,-3 -2.3,7.1 -9.2,9.5 -14,14 0.4,1.9 2.2,2.5 2,5 -5.5,7.4 -16.4,5.3 -28,5 -0.5,-2.8 1.8,-8.5 -3,-7 3.9,-5.7 3,-10.1 4,-18.1 5.6,-4.2 14.2,-0.6 21,0 6.5,-6.6 0,-16.3 -6,-19.1 5.2,-1.1 8.8,-5.1 13,-2 9.9,-4.4 11.6,-17.1 26,-17.1 -0.5,-4.5 -3,-7 -2,-13 3,0.3 3.9,-3.2 6,-1 1.1,5.1 -2.3,5.7 -2,10 5.5,5.7 20.4,2.4 27,0 0,-4.4 -0.6,-9.3 2,-11 3.4,-1.7 4.3,-0.3 6,2 2.4,-2.2 -3.1,-6.2 0,-9 4.7,0 9.3,0 14,0 -3.8,-7.1 -11.5,-1.7 -17,0 -10.7,-5.2 -4.3,-18.4 3,-22.1 -6.9,-8.4 -10.7,8.2 -17,10 3.6,12.9 -0.6,22.3 -9,28.1 -5,-2.7 -4.5,-10.9 -8,-15.1 -2,0.6 -0.7,4.7 -3,5 -3.8,0.8 -4.8,-1.2 -8,-1 -1.5,-6.2 -0.9,-12.7 2,-17.1 2.2,-0.8 3.4,-2.6 7,-2 4.3,-12.4 20.3,-31.4 36,-29.1 2.4,0.4 -0.6,-4.6 3,-3 1.4,1.6 3.4,2.6 6,3 0.5,3.2 -3.4,2.7 -1,5 9.2,-2 22.5,2.5 29,9 -1.6,8.4 -13.9,4.1 -18,1 0.8,4.9 5.8,5.6 8,9 0.3,-3.4 5.5,-4.1 7,-1 1.9,-3.3 5.5,-10.2 10,-5 1.5,-5.9 -4.9,-7.9 -3,-11 4.2,-0.5 5.6,1.8 9,2 1.2,3.2 -3.2,0.8 -2,4 7.5,-0.5 9,-7.1 16,-8 4.1,-0.3 0.5,2.1 1,4 4.9,0.2 7.6,-1.8 13,-1 2.6,-0.2 -1.4,-1.7 0,-4 8.8,-0.8 12.8,3.2 20,4 0.1,-3.8 -3.9,-3.4 -7,-4 -0.1,-4.9 0.5,-10.6 -1,-14 4.5,-0.5 7.5,0.5 11,1 -0.7,6.1 1.6,9.1 5,11 2.2,-3.3 -6.1,-4.6 -4,-11 5.2,1.5 4.9,8.5 12,8 2,-1.4 -6,-1.2 -4,-6 8.7,0 15.4,2 18,8 4.1,-9.1 -13.4,-5.3 -14,-13 2.2,-1.8 7.5,-0.5 10,-2 -0.4,-1.9 -3.9,-0.8 -3,-4 1.6,-1.5 4.7,-1.3 6,-3 -14.7,0 -29.3,0 -44,0 -6.1,3.9 -15.8,4.2 -20,10 -1.1,6 5.6,6.9 7,13 -8.5,1.6 -9.3,-4.7 -16,-5 0.8,-0.7 2.2,-5.6 0,-6 0.1,-2.2 2.5,-2.2 5,-2 -1,-2.8 1.7,-6.9 0,-7 1.9,-2.2 7.4,-0.6 9,-3 -53.7,0 -107.4,0 -161,0 6,6.7 -6.4,8.7 -14,8 -0.1,5.5 6,4.7 5,11 -5.6,1.3 -4.7,-4 -9,-4 -1.4,0.6 -2.4,1.6 -3,3 -10.1,28.3 -35,18.1 -35,18.1 -10.8,3.9 -11.9,20.5 -20,21.1 -7.9,0.6 -8.7,-8.9 -12,-17.1 0.6,-2.7 2,-4.7 4,-6 0.4,-2.4 -4.6,0.6 -3,-3 1.5,-5.9 8.5,-6.2 11,-11 -0.1,-3.3 -6,-0.7 -5,-5 3.9,-1 5.8,2.2 8,0 -0.1,-1.3 -1.3,-1.4 -1,-3 -2.2,-3.4 -4.1,4.9 -7,1 0.5,-4.5 6.5,-7.7 3,-13 -16.3,0 -32.7,0 -49,0 1.2,4.6 -3.5,3.2 -4,6 11.9,-3.5 14.9,5 22,9 0.2,3.6 -4.7,2 -4,6 0.8,4.2 7.4,2.6 8,7 -0.8,3.8 -4.5,4.8 -8,6 -3.3,-1.1 -2.9,-5.8 -7,-6 -1,6 2.4,7.7 2,13 -2.2,2.1 -6.7,0.8 -8,-1 -0.4,2.2 3.1,5.4 1,6 -6.8,-0.5 -9.9,-4.8 -12,-10 -3.4,-0.6 -9.3,1.3 -11,-1 2,-7.7 18,-1.4 18,-11 0.5,-3.1 -0.9,-4.5 -4,-4 2.5,-3.1 3.6,-4.9 0,-8 -2.1,3.7 -8.2,3.4 -12,1 -3.1,1.9 4.4,1.5 3,5 -2.1,6.3 -8.3,8.4 -16,9 -2,2.4 4.5,4.8 3,10 -5.6,-3.5 -10.2,1.5 -15,2 0,-2 0,-4 0,-6 -4.1,0.1 -8.2,0.2 -11,-1 -2.7,0.9 2.7,1.9 1,5 -8.8,2.2 -14,8 -19,14 -0.7,3.1 1.7,3 1,6 7.6,1.4 6.6,11.4 16,11 -0.9,5.7 -4.9,11 -1,16.1 4.4,-2.3 6.2,-7.1 7,-13 5.7,-0.7 8.6,-4.1 12,-7 -3.8,-12.8 8.8,-14.3 12,-23.1 10.3,1.4 20.9,6.3 13,15.1 0.4,1.3 1.8,1.6 2,3 5.7,-0.7 6.7,-6 13,-6 -0.3,6.1 0.8,13.5 -1,18.1 4.7,1.4 6.3,5.7 9,9 -4.3,5.7 2.5,10.1 -6,11 0,4 3.9,4.1 7,5 -3.1,3.4 -0.3,4.4 0,9 -6.6,0.2 -10.8,-0.2 -18,-4 1.8,-5.9 8.2,-7.2 10,-13 -12.5,3.5 -29.8,2.2 -39,9 2.6,0.8 12.4,-6.7 17,-1 0.5,3.1 -2.1,3.2 -5,3 0,2.3 0,4.7 0,7 -0.5,2.8 5.5,-0.8 5,2 3.7,-0.3 2.3,-5.8 7,-5 1.7,9 -12,10.4 -21,12 -0.7,-5.4 6.2,-3.2 7,-7 -6.8,1.5 -11.8,4.8 -19,6 -2.8,0.8 -1.2,6.2 -3,8 -5,-0.4 -8.7,0.6 -12,2 -1.4,10 -11.4,11.3 -13,21.1 -7,7 -19.4,8.6 -25,17.1 -0.9,8.3 5.6,17.5 -2,21.1 -5.2,-1.2 -3.8,-8.9 -4,-15.1 -4,-3.7 -10.8,-4.5 -19,-4 -2.9,1.7 5.1,0.8 3,5 -11.7,-5.4 -24.4,0.4 -30,12 -6.1,17.2 9,25 9,25 10.8,1.8 4.7,-13.7 17,-8 -2,8 -5.9,14.2 -9,21.1 4.7,2.2 11.5,-3.7 15,2 0.8,10.6 -8,23.3 3,27.1 5.7,-3.6 11.4,-3.5 15,2 5.7,-5.7 9.5,-13.2 20,-14 -0.5,3.9 -5.3,7.5 -3,11 2.7,-3 3.1,-8.3 6,-11 6.8,6.7 17.9,9.6 30,6 0.6,3.6 -1.2,4.9 -2,7 6.2,2.8 9.7,8.3 14,13 3.3,0 6.7,0 10,0 6.1,3.6 8.8,10.6 12,17.1 -1.6,4.4 -5.4,6.6 -7,11 2.6,2.8 4.1,-3.9 8,-3 5.1,3.5 4.2,3.3 12,2 1.9,1.8 3.6,3.8 4,7 3.3,0 6.7,0 10,0 7.5,5.5 16.5,9.5 23,16.1 1.5,13.9 -10.3,14.4 -10,27.1 -2.3,-0.3 -3.8,0.2 -5,1 3.1,14.2 0.1,30.9 -8,37.1 -8.7,-3.5 -11.6,6.9 -18,9 3.4,9 -1.5,17.8 -4,24.1 -1.2,-0.2 -0.8,-1.8 -1,-3 -2.5,4.5 -4.4,9.7 -6,15.1 -4.1,0.1 -8.2,0.2 -11,-1 -1.9,3.9 6.9,5.7 6,12 -1.1,4.9 -8.1,3.9 -14,4 -2.9,2.3 3.4,3.9 2,8 -2,1.7 -5.6,1.7 -8,3 -0.1,3.8 5.8,1.5 6,5 -3.4,2.9 -3.4,9.3 -6,13 3,3 8.6,7.9 5.1,14.4 152.4,0 303.9,0 456.3,0 0,-88 0,-179.4 0,-267.4 -4,5.1 -5.8,14.9 -13.4,15.7 z M 451.1,156.5 c -0.8,4.4 -9.5,1.4 -11,0 0.8,-3.4 10.1,-2.5 11,0 z m -54,-23 c 0.6,-2.8 1.1,-5.6 5,-5 -1.8,6.7 5,14.1 -4,16.1 0.3,-3 -1.1,-7.8 2,-8 -0.1,-2 -3.3,-0.8 -3,-3.1 z m -26,-66.3 c -1.6,3.4 0.1,3 2,5 0.5,2.2 -1.9,1.4 -2,3 6.5,1.9 4.2,12.5 11,14 -0.2,3.7 -1.4,3.8 0,7 -9,-1 -13.4,2.6 -21,3 -0.1,-3.2 2.6,-3.4 5,-4 -0.7,-1.3 -2.1,-1.9 -4,-2 0.2,-3.8 4.2,-3.8 4,-8 1.5,0.5 2.5,1.5 4,2 -0.2,-4.8 -3.9,-6.2 -7,-8 -0.7,-7.3 1.5,-11.8 8,-12 z m -21,14.1 c 5.6,3.5 4.8,-4.2 11,-3 -0.7,2.7 2,2 2,4 -2.1,6.5 -3.5,13.9 -14,12 -1.1,-4.7 1.7,-5.6 4,-7 -1.5,-1.6 -4,-2 -3,-6 z m -24,-45.2 c 8.1,4.2 12.2,0.4 22,2 0,2.3 0,4.7 0,7 -8.6,4.8 -18.2,6 -25,-1 0.5,-3.1 1.7,-5.5 3,-8 z M 125,184.6 c 4.9,-1.8 3.9,8.6 0,7 0,-2.3 0,-4.6 0,-7 z m -7,27.1 c 1.5,-2.4 6.9,-0.3 8,1 -0.5,4.7 -7.5,0.9 -8,-1 z m 5,-4 c 3.6,-8.2 -13.1,-12.7 -22,-9 8.2,-11.8 31.5,-2.9 34,9 -4,0 -8,0 -12,0 z m 402.1,156.5 c -1.2,10.4 -11.4,20.8 -13,28.1 -19.1,-3.5 -4.7,-22.3 -6,-38.1 5.4,0.8 7.8,-1.5 11,-3 0,-6.4 5.9,-5.8 6,-14 11.4,4.7 3,14.1 1,21.1 -0.5,1.7 1.2,4.1 1,5.9 z m 108.1,-94.3 c -2.4,-0.4 -2.2,1.8 -5,1 -2.7,-4.2 -3.8,-10.3 -1,-15.1 6.3,0 8.4,8.7 6,14.1 z"
         id="path99"
         inkscape:connector-curvature="0"
         style="clip-rule:evenodd;fill:#0378b9;fill-rule:evenodd" /><path
         class="st3"
         d="m 52.2,207.7 c -5,-1.4 8.8,37.9 -4.8,14.9 -5.9,-10 -2.8,-25.5 -8.4,-36.8 -5,-10 -21.7,-32.4 -24.1,-42.3 -6.7,-27.1 7.8,-43.6 7.8,-43.6 l 0,0 c 2.9,-3.5 6,-6.7 9.2,-9.9 0,0 0,0 0.1,-0.1 0.4,-0.4 0.8,-0.8 1.2,-1.2 0.5,-0.6 1.1,-1.1 1.6,-1.7 0.2,-0.2 0.3,-0.3 0.5,-0.5 0.6,-0.6 1.2,-1.3 1.7,-1.9 0.1,-0.1 0.2,-0.2 0.3,-0.3 0.6,-0.7 1.2,-1.4 1.8,-2.1 2.6,3.3 4.8,1.1 4,-4 -4,-3.2 1.5,3.9 -4,3 -2.2,-2.2 -4.4,-4.3 -4,-9 3.3,-1.4 6.8,-2.6 9,-5 1.9,-2.2 -2.6,-4.1 -1,-9 7,-5 -0.3,-11.2 4,-18.1 -7.4,-2.6 -8.6,-11.6 -16,-12 -5.3,-0.3 -8.2,7.4 -15,4 0.4,-4.3 11,-3.7 10,-6 -11.2,1.2 -15.2,9.5 -26,11 C 0,240.9 0,389.4 0,482 l 162.2,0 c 0,0 -6.4,-8.4 -6.1,-13.4 5.2,1.5 3.9,-3.5 5,-6 -2.3,-1.1 -3.6,-11.8 -9,-13 -1.4,-5.3 -2.8,-10.5 -5,-15.1 7.9,-15.3 -2.8,-32.6 -1,-51.2 0,-1.7 -2.8,-0.6 -3,-2 2.7,-7.3 -0.3,-16 -1,-23.1 -7.6,-5.5 -16.4,-7.6 -22,-15.1 -7.1,-9.5 -5,-25.4 -16,-32.1 -1.1,-5.7 -0.6,-11.6 2,-16.1 -2.8,-0.2 -4.3,-1.7 -4,-5 -0.1,-7.8 12,-12 14,-19.1 1.6,-5.7 -1,-12.5 -3,-19.1 -3.5,-3 -2.6,4.9 -7,4 -11.7,-3.3 -17.6,-12.4 -21,-24.1 -9.3,-1.4 -19,-16.9 -19.1,-16.8 M 17.1,108.1 c 0.3,-0.5 0.5,-0.9 0.8,-1.4 -0.3,0.5 -0.5,1 -0.8,1.4 z m -1.8,3.7"
         id="path101"
         inkscape:connector-curvature="0"
         style="clip-rule:evenodd;fill:#0378b9;fill-rule:evenodd" /><path
         class="st3"
         d="m 108,1 c 5,1 -3.3,3.4 -4,5 6,0.4 7.8,-3.6 12,-5 3.7,3.3 9.8,4.2 15,6 1.5,6.9 7.7,4.3 8,11 2.1,-0.6 2.9,-2.5 6,-2 -2,-5.4 -11.1,-3.6 -12,-10 2.6,-1.4 4.2,-3.8 6,-6 -17.3,0 -34.7,0 -52,0 4.1,7.6 12.5,2.1 21,1 z"
         id="path103"
         inkscape:connector-curvature="0"
         style="clip-rule:evenodd;fill:#0378b9;fill-rule:evenodd" /></g></g><g
     id="g105"
     transform="translate(0,-2)"><path
       class="st1"
       d="M 39,81.1"
       id="path107"
       inkscape:connector-curvature="0"
       style="clip-rule:evenodd;fill:#ffffff;fill-rule:evenodd" /><path
       class="st1"
       d="m 139,236.6 m 3,0"
       id="path109"
       inkscape:connector-curvature="0"
       style="clip-rule:evenodd;fill:#ffffff;fill-rule:evenodd" /></g></svg>